<?xml version="1.0" encoding="UTF-8"?>
<svg xmlns="http://www.w3.org/2000/svg" viewBox="0 0 213.3 47.9"><script xmlns=""/>
<g id="logo" style="fill:#4C6275">
	<g id="ifab">
		<path d="M0.6,1.1L0,2.7c6.9,0.9,7.1,1,7.1,6.9v22.8v5v10.5h0.2c7.6,0,7.6-4.9,7.6-6.2v-4.2v-5V1.9L15.5,0L0.6,1.1z"/>
		<path d="M20.1,0.3l-0.6,1.6C26,3,26.2,3,26.2,10v31.7c0,1.3,0,6.2,7.5,6.2l0,0h0.1H34h5.3H40l0.6-1.8H40    c-4.9,0-6-1.1-6-6.6V24.7h14.5l1.2-3.3H34.1V7.3c0-3.4,0.9-3.7,4.5-3.7H44c4.6,0,7.6,1.5,7.6,7.1h2l3.8-10.5L20.1,0.3L20.1,0.3z"/>
		<path d="M62.1,29.9h15.6L69.6,9.2L62.1,29.9z M65.2,9.4c0.4-1.2,1.2-3.7,1.2-4.2c0-2.8-2.6-2.9-5.4-3.3l0.6-1.6h12.7    c0,0,11.2,31.2,15.1,41.5c1.3,3.5,4.6,6.1,6.9,6.1h-6.8c-5.3,0-6.9-4.7-7.4-6.2c-0.8-2.1-3.1-8.5-3.1-8.5H61l-5.3,14.7h-4.4    L65.2,9.4z"/>
		<path d="M103.2,41.7c0,2.9,2.9,2.9,6.8,2.9c7.8,0,11.1-3.5,11.1-10.7c0-7-5.2-9.5-11.5-9.5h-6.4V41.7L103.2,41.7z     M103.2,21.1h4.7c6.1,0,10.7-2,10.7-9c0-6.4-3.6-8.5-10-8.5c-4.2,0-5.4,0.2-5.4,3.7C103.2,7.3,103.2,21.1,103.2,21.1z M95.4,9.9    c0-7-0.1-7-6.7-8.1l-0.6-1.6h21.6c8.1,0,16.8,1.9,16.8,11.5c0,6.9-5,9.6-8.5,10.7v0.1c5,1,10.9,3.6,10.9,12.6    c0,12.7-14.4,12.7-20.1,12.7h-5.5c-7.8,0-7.8-4.9-7.8-6.2L95.4,9.9L95.4,9.9z"/>
	</g>
	<path id="reserved" d="M133,8.5c-0.6,0-1.1-0.1-1.6-0.3s-0.9-0.5-1.3-0.9c-0.4-0.4-0.7-0.8-0.9-1.3s-0.3-1-0.3-1.6   s0.1-1.1,0.3-1.6s0.5-0.9,0.9-1.3s0.8-0.7,1.3-0.9s1-0.3,1.6-0.3s1.1,0.1,1.6,0.3s0.9,0.5,1.3,0.9c0.4,0.4,0.7,0.8,0.9,1.3   s0.3,1,0.3,1.6S137,5.5,136.8,6s-0.5,0.9-0.9,1.3s-0.8,0.7-1.3,0.9S133.5,8.5,133,8.5z M133,7.7c0.4,0,0.8-0.1,1.2-0.2   c0.4-0.2,0.7-0.4,1-0.7c0.3-0.3,0.5-0.6,0.7-1s0.2-0.8,0.2-1.3s-0.1-0.9-0.2-1.3c-0.2-0.4-0.4-0.7-0.7-1s-0.6-0.5-1-0.7   s-0.8-0.2-1.2-0.2s-0.8,0.1-1.2,0.2c-0.4,0.2-0.7,0.4-1,0.7s-0.5,0.6-0.7,1s-0.2,0.8-0.2,1.3s0.1,0.9,0.2,1.3   c0.2,0.4,0.4,0.7,0.7,1s0.6,0.5,1,0.7C132.1,7.6,132.5,7.7,133,7.7z M134.8,6.7c-0.7-1.2-1.2-2-1.4-2.1l0,0   c0.4-0.2,0.9-0.6,0.9-1.2c0-0.7-0.5-1.3-1.7-1.3h-1.3v4.7h0.9V4.9h0.4c0.2,0.1,0.5,0.6,1.2,1.8H134.8L134.8,6.7z M133.4,3.5   c0,0.4-0.3,0.8-0.8,0.8h-0.4V2.8h0.4C133.2,2.8,133.4,3.1,133.4,3.5z"/>
	<g id="title">
		<g id="the">
			<polygon points="150.5,1.1 149.3,1.1 149.3,4.7 148.3,4.7 148.3,1.1 147,1.1 147,0.3 150.7,0.3"/>
			<polygon points="155.5,4.7 155.5,2.9 153.5,2.9 153.5,4.7 152.5,4.7 152.5,0.3 153.5,0.3 153.5,2 155.5,2 155.5,0.3     156.5,0.3 156.5,4.7"/>
			<polygon points="158.6,4.7 158.6,0.3 161.3,0.3 161.1,1.1 159.7,1.1 159.7,2 161.1,2 161.1,2.8 159.7,2.8 159.7,3.8     161.3,3.8 161.3,4.6 158.6,4.7"/>
		</g>
		<g id="international">
			<rect x="147.3" y="8.4" width="1" height="4.4"/>
			<path d="M153.7,12.8l-1.8-2.3c-0.1-0.2-0.3-0.4-0.4-0.6l0,0c0,0.1,0,0.4,0,0.6v2.3h-1V8.4h1l1.8,2.2     c0.1,0.2,0.3,0.3,0.4,0.5l0,0c0-0.2,0-0.6,0-0.7v-2h1v4.4L153.7,12.8L153.7,12.8z"/>
			<polygon points="160,9.2 158.8,9.2 158.8,12.8 157.8,12.8 157.8,9.2 156.5,9.2 156.5,8.4 160.2,8.4 160,9.2"/>
			<polygon points="162,12.8 162,8.4 164.7,8.4 164.5,9.2 163.1,9.2 163.1,10.1 164.5,10.1 164.5,11 163.1,11 163.1,12     164.7,12 164.7,12.8 162,12.8"/>
			<path d="M168.1,9.2h-0.4v1.2h0.4c0.4,0,0.6-0.3,0.6-0.6C168.7,9.5,168.5,9.2,168.1,9.2L168.1,9.2z M169.1,12.8     c-0.7-1.2-0.9-1.6-1-1.7h-0.3v1.7h-1V8.4h1.4c1.2,0,1.6,0.6,1.6,1.3c0,0.6-0.4,1-0.8,1.1l0,0c0.2,0.1,0.7,0.9,1.3,2H169.1z"/>
			<path d="M175.3,12.8l-1.8-2.3c-0.1-0.2-0.3-0.4-0.4-0.6l0,0c0,0.1,0,0.4,0,0.6v2.3h-1V8.4h1l1.8,2.2     c0.1,0.2,0.3,0.3,0.4,0.5l0,0c0-0.2,0-0.6,0-0.7v-2h1v4.4L175.3,12.8L175.3,12.8z"/>
			<path d="M180.4,10.2c-0.1-0.2-0.1-0.4-0.2-0.5l0,0c0,0.1-0.1,0.3-0.2,0.5l-0.3,0.7h0.8L180.4,10.2z M181.3,12.8     l-0.4-1.1h-1.4l-0.4,1.1h-1l1.7-4.5h0.8l1.8,4.5H181.3L181.3,12.8z"/>
			<polygon points="186.9,9.2 185.7,9.2 185.7,12.8 184.7,12.8 184.7,9.2 183.4,9.2 183.4,8.4 187.1,8.4"/>
			<rect x="188.9" y="8.4" width="1" height="4.4"/>
			<path d="M194.2,9.2c-0.7,0-1.2,0.5-1.2,1.5c0,0.9,0.5,1.5,1.2,1.5s1.2-0.5,1.2-1.5C195.5,9.7,194.9,9.2,194.2,9.2z      M195.9,12.2c-0.4,0.4-1,0.7-1.7,0.7s-1.2-0.2-1.6-0.5c-0.5-0.4-0.7-1-0.7-1.7s0.2-1.2,0.6-1.7c0.4-0.4,1-0.7,1.7-0.7     s1.3,0.3,1.7,0.7s0.6,1,0.6,1.6C196.5,11.2,196.3,11.8,195.9,12.2L195.9,12.2z"/>
			<path d="M201.8,12.8l-1.8-2.3c-0.1-0.2-0.3-0.4-0.4-0.6l0,0c0,0.1,0,0.4,0,0.6v2.3h-1V8.4h1l1.8,2.2     c0.1,0.2,0.3,0.3,0.4,0.5l0,0c0-0.2,0-0.6,0-0.7v-2h1v4.4L201.8,12.8L201.8,12.8z"/>
			<path d="M206.9,10.2c-0.1-0.2-0.1-0.4-0.2-0.5l0,0c0,0.1-0.1,0.3-0.2,0.5l-0.3,0.7h0.8L206.9,10.2z M207.8,12.8     l-0.4-1.1H206l-0.4,1.1h-1l1.7-4.5h0.8l1.8,4.5H207.8L207.8,12.8z"/>
			<polygon points="210.7,12.8 210.7,8.4 211.7,8.4 211.7,12 213.2,12 213.2,12.8 210.7,12.8"/>
		</g>
		<g id="football">
			<polygon points="149.7,17.3 148.3,17.3 148.3,18.2 149.7,18.2 149.7,19 148.3,19 148.3,20.8 147.3,20.8 147.3,16.4     150,16.4"/>
			<path d="M154,17.2c-0.7,0-1.2,0.5-1.2,1.5c0,0.9,0.5,1.5,1.2,1.5s1.2-0.5,1.2-1.5C155.2,17.8,154.7,17.2,154,17.2z      M155.7,20.3c-0.4,0.4-1,0.7-1.7,0.7s-1.2-0.2-1.6-0.5c-0.5-0.4-0.7-1-0.7-1.7s0.2-1.2,0.6-1.7c0.4-0.4,1-0.7,1.7-0.7     s1.3,0.3,1.7,0.7c0.4,0.4,0.6,1,0.6,1.6S156.1,19.9,155.7,20.3L155.7,20.3z"/>
			<path d="M160.4,17.2c-0.7,0-1.2,0.5-1.2,1.5c0,0.9,0.5,1.5,1.2,1.5s1.2-0.5,1.2-1.5     C161.7,17.8,161.1,17.2,160.4,17.2z M162.1,20.3c-0.4,0.4-1,0.7-1.7,0.7s-1.2-0.2-1.6-0.5c-0.5-0.4-0.7-1-0.7-1.7     s0.2-1.2,0.6-1.7c0.4-0.4,1-0.7,1.7-0.7s1.3,0.3,1.7,0.7c0.4,0.4,0.6,1,0.6,1.6C162.7,19.3,162.5,19.9,162.1,20.3z"/>
			<polygon points="167.7,17.3 166.5,17.3 166.5,20.9 165.5,20.9 165.5,17.3 164.2,17.3 164.2,16.5 167.9,16.5     167.7,17.3"/>
			<path d="M171.2,19.1h-0.5v1h0.4c0.5,0,0.7-0.2,0.7-0.5C171.9,19.2,171.6,19.1,171.2,19.1L171.2,19.1z M171,17.3h-0.3     v0.9h0.4c0.2,0,0.4-0.2,0.4-0.5C171.6,17.5,171.4,17.3,171,17.3z M171.3,20.9h-1.6v-4.4h1.5c0.9,0,1.4,0.6,1.4,1.1     c0,0.3-0.2,0.7-0.5,0.9l0,0c0.5,0.1,0.8,0.6,0.8,1.1C172.9,20.2,172.4,20.9,171.3,20.9L171.3,20.9z"/>
			<path d="M176.7,18.3c-0.1-0.2-0.1-0.4-0.2-0.5l0,0c0,0.1-0.1,0.3-0.2,0.5L176,19h0.8L176.7,18.3L176.7,18.3z      M177.7,20.9l-0.4-1.1h-1.4l-0.4,1.1h-1l1.7-4.5h0.8l1.8,4.5H177.7z"/>
			<polygon points="180.6,20.9 180.6,16.5 181.6,16.5 181.6,20.1 183.1,20.1 183.1,20.9 180.6,20.9"/>
			<polygon points="184.9,20.9 184.9,16.5 185.9,16.5 185.9,20.1 187.4,20.1 187.4,20.9 184.9,20.9"/>
		</g>
		<g id="association">
			<path d="M149.2,26.4c-0.1-0.2-0.1-0.4-0.2-0.5l0,0c0,0.1-0.1,0.3-0.2,0.5l-0.3,0.7h0.8L149.2,26.4L149.2,26.4z      M150.2,29l-0.4-1.1h-1.4L148,29h-1l1.7-4.5h0.8l1.8,4.5H150.2L150.2,29z"/>
			<path d="M154.4,29c-0.7,0-1.1-0.2-1.5-0.4l0.4-0.7c0.3,0.2,0.6,0.4,1,0.4c0.3,0,0.6-0.1,0.6-0.4     c0-0.5-1.1-0.6-1.6-1.2c-0.2-0.2-0.3-0.4-0.3-0.8c0-0.7,0.5-1.3,1.6-1.3c0.5,0,0.9,0.1,1.2,0.3v0.9c-0.4-0.2-0.7-0.3-1.1-0.3     c-0.3,0-0.5,0.1-0.5,0.4c0,0.7,1.9,0.6,1.9,2C156,28.5,155.3,29,154.4,29z"/>
			<path d="M159.2,29c-0.7,0-1.1-0.2-1.5-0.4l0.4-0.7c0.3,0.2,0.6,0.4,1,0.4c0.3,0,0.6-0.1,0.6-0.4     c0-0.5-1.1-0.6-1.6-1.2c-0.2-0.2-0.3-0.4-0.3-0.8c0-0.7,0.5-1.3,1.6-1.3c0.5,0,0.9,0.1,1.2,0.3v0.9c-0.4-0.2-0.7-0.3-1.1-0.3     c-0.3,0-0.5,0.1-0.5,0.4c0,0.7,1.9,0.6,1.9,2C160.9,28.5,160.2,29,159.2,29L159.2,29z"/>
			<path d="M165,25.3c-0.7,0-1.2,0.5-1.2,1.5c0,0.9,0.5,1.5,1.2,1.5s1.2-0.5,1.2-1.5S165.7,25.3,165,25.3z M166.7,28.3     c-0.4,0.4-1,0.7-1.7,0.7s-1.2-0.2-1.6-0.5c-0.5-0.4-0.7-1-0.7-1.7s0.2-1.2,0.6-1.7c0.4-0.4,1-0.7,1.7-0.7s1.3,0.3,1.7,0.7     c0.4,0.4,0.6,1,0.6,1.6C167.3,27.4,167.1,27.9,166.7,28.3L166.7,28.3z"/>
			<path d="M171.4,29c-1.5,0-2.3-1-2.3-2.2c0-1.3,1-2.3,2.5-2.3c0.4,0,0.9,0.1,1.2,0.2v0.9c-0.4-0.2-0.8-0.3-1.1-0.3     c-1.1,0-1.5,0.7-1.5,1.4c0,0.8,0.5,1.4,1.4,1.4c0.4,0,0.8-0.1,1.1-0.3l0.3,0.7C172.5,28.9,171.9,29,171.4,29L171.4,29z"/>
			<rect x="174.9" y="24.6" width="1" height="4.4"/>
			<path d="M180,26.4c-0.1-0.2-0.1-0.4-0.2-0.5l0,0c0,0.1-0.1,0.3-0.2,0.5l-0.3,0.7h0.8L180,26.4L180,26.4z M181,29     l-0.4-1.1h-1.4l-0.4,1.1h-1l1.7-4.5h0.8l1.8,4.5H181L181,29z"/>
			<polygon points="186.6,25.4 185.4,25.4 185.4,29 184.4,29 184.4,25.4 183.1,25.4 183.1,24.6 186.8,24.6"/>
			<rect x="188.6" y="24.6" width="1" height="4.4"/>
			<path d="M193.9,25.3c-0.7,0-1.2,0.5-1.2,1.5c0,0.9,0.5,1.5,1.2,1.5s1.2-0.5,1.2-1.5     C195.1,25.8,194.6,25.3,193.9,25.3z M195.6,28.3c-0.4,0.4-1,0.7-1.7,0.7s-1.2-0.2-1.6-0.5c-0.5-0.4-0.7-1-0.7-1.7     s0.2-1.2,0.6-1.7c0.4-0.4,1-0.7,1.7-0.7s1.3,0.3,1.7,0.7c0.4,0.4,0.6,1,0.6,1.6C196.2,27.4,196,27.9,195.6,28.3z"/>
			<path d="M201.5,29l-1.8-2.3c-0.1-0.2-0.3-0.4-0.4-0.5l0,0c0,0.1,0,0.4,0,0.6V29h-1v-4.4h1l1.8,2.2     c0.1,0.2,0.3,0.3,0.4,0.5l0,0c0-0.2,0-0.6,0-0.7v-2.1h1V29H201.5L201.5,29z"/>
		</g>
		<g id="board">
			<path d="M148.7,35.2h-0.5v1h0.4c0.5,0,0.7-0.2,0.7-0.5C149.4,35.4,149.2,35.2,148.7,35.2z M148.6,33.4h-0.3v0.9h0.4     c0.2,0,0.4-0.2,0.4-0.5C149.1,33.7,149,33.4,148.6,33.4L148.6,33.4z M148.9,37h-1.6v-4.4h1.5c0.9,0,1.4,0.6,1.4,1.1     c0,0.3-0.2,0.7-0.5,0.9l0,0c0.5,0.1,0.8,0.6,0.8,1.1C150.4,36.3,149.9,37,148.9,37L148.9,37z"/>
			<path d="M154.5,33.4c-0.7,0-1.2,0.5-1.2,1.5c0,0.9,0.5,1.5,1.2,1.5s1.2-0.5,1.2-1.5S155.2,33.4,154.5,33.4z      M156.2,36.4c-0.4,0.4-1,0.7-1.7,0.7s-1.2-0.2-1.6-0.5c-0.5-0.4-0.7-1-0.7-1.7s0.2-1.2,0.6-1.7c0.4-0.4,1-0.7,1.7-0.7     s1.3,0.3,1.7,0.7s0.6,1,0.6,1.6C156.8,35.4,156.6,36,156.2,36.4L156.2,36.4z"/>
			<path d="M160.5,34.5c-0.1-0.2-0.1-0.4-0.2-0.5l0,0c0,0.1-0.1,0.3-0.2,0.5l-0.3,0.7h0.8L160.5,34.5L160.5,34.5z      M161.5,37l-0.4-1.1h-1.4l-0.4,1.1h-1l1.7-4.5h0.8l1.8,4.5H161.5L161.5,37z"/>
			<path d="M165.8,33.4h-0.4v1.2h0.4c0.4,0,0.6-0.3,0.6-0.6C166.4,33.7,166.2,33.4,165.8,33.4L165.8,33.4z M166.8,37     c-0.7-1.2-0.9-1.6-1-1.7h-0.3V37h-1v-4.4h1.4c1.2,0,1.6,0.6,1.6,1.3c0,0.6-0.4,1-0.8,1.1l0,0c0.2,0.1,0.7,0.9,1.3,2     C168,37,166.8,37,166.8,37z"/>
			<path d="M171.2,33.4h-0.5v2.8h0.5c1,0,1.5-0.7,1.5-1.4C172.7,34,172.2,33.4,171.2,33.4z M171.2,37h-1.5v-4.4h1.6     c1.6,0,2.5,0.8,2.5,2.2S172.7,37,171.2,37L171.2,37z"/>
		</g>
	</g>
</g>
</svg>